<svg width="16" height="17" viewBox="0 0 16 17" fill="none" xmlns="http://www.w3.org/2000/svg">
<path fill-rule="evenodd" clip-rule="evenodd" d="M5.05752 8.44263C4.80747 8.69263 4.66699 9.03177 4.66699 9.38543V11.1665C4.66699 11.5346 4.96547 11.8332 5.33366 11.8332H7.11473C7.46833 11.8332 7.80746 11.6926 8.05753 11.4426L14.3909 5.10927C14.9115 4.58857 14.9115 3.74436 14.3909 3.22366L13.2765 2.10928C12.7558 1.58858 11.9115 1.58858 11.3909 2.10928L5.05752 8.44263ZM7.11473 10.4998H6.00033V9.38543L12.3337 3.05208L13.4481 4.16647L7.11473 10.4998Z" fill="#347F44"/>
<path d="M6.66634 3.16667C6.66634 3.53486 6.36787 3.83334 5.99967 3.83334H2.66634V13.8334H12.6663V10.5C12.6663 10.1318 12.9648 9.83337 13.333 9.83337C13.7012 9.83337 13.9997 10.1318 13.9997 10.5V13.8334C13.9997 14.5697 13.4027 15.1667 12.6663 15.1667H2.66634C1.92996 15.1667 1.33301 14.5697 1.33301 13.8334V3.83334C1.33301 3.09696 1.92996 2.5 2.66634 2.5H5.99967C6.36787 2.5 6.66634 2.79848 6.66634 3.16667Z" fill="#347F44"/>
</svg>
